<svg width="25" height="25" viewBox="0 0 25 25" fill="none" xmlns="http://www.w3.org/2000/svg">
<g id="ringing-bell-notification--notification-vibrate-ring-sound-alarm-alert-bell-noise" clip-path="url(#clip0_264_11322)">
<g id="ringing-bell-notification--notification-vibrate-ring-sound-alarm-alert-bell-noise_2">
<path id="Vector" d="M10.7143 23.6606H14.2857" stroke="black" stroke-width="2" stroke-linecap="round" stroke-linejoin="round"/>
<path id="Vector_2" d="M19.6428 10.2679C19.6428 8.37345 18.8903 6.55664 17.5508 5.21709C16.2112 3.87755 14.3944 3.125 12.5 3.125C10.6056 3.125 8.78877 3.87755 7.44922 5.21709C6.10968 6.55664 5.35713 8.37345 5.35713 10.2679V16.5179C5.35713 17.2282 5.07492 17.9096 4.57259 18.412C4.07027 18.9143 3.38895 19.1964 2.67856 19.1964H22.3214C21.6111 19.1964 20.9296 18.9143 20.4273 18.412C19.925 17.9096 19.6428 17.2282 19.6428 16.5179V10.2679Z" stroke="black" stroke-width="2" stroke-linecap="round" stroke-linejoin="round"/>
<path id="Vector_3" d="M0.892853 10.0358C0.893815 8.33603 1.29916 6.66091 2.07542 5.14877C2.85167 3.63662 3.97655 2.33087 5.35714 1.33936" stroke="black" stroke-width="2" stroke-linecap="round" stroke-linejoin="round"/>
<path id="Vector_4" d="M24.1071 10.0358C24.1062 8.33603 23.7009 6.66091 22.9246 5.14877C22.1484 3.63662 21.0234 2.33087 19.6429 1.33936" stroke="black" stroke-width="2" stroke-linecap="round" stroke-linejoin="round"/>
</g>
</g>
<defs>
<clipPath id="clip0_264_11322">
<rect width="25" height="25" fill="white"/>
</clipPath>
</defs>
</svg>
