<svg width="30" height="30" viewBox="0 0 30 30" fill="none" xmlns="http://www.w3.org/2000/svg">
<g id="ringing-bell-notification--notification-vibrate-ring-sound-alarm-alert-bell-noise" clip-path="url(#clip0_447_1266)">
<g id="ringing-bell-notification--notification-vibrate-ring-sound-alarm-alert-bell-noise_2">
<path id="Vector" d="M12.8571 28.3928H17.1428" stroke="black" stroke-width="2" stroke-linecap="round" stroke-linejoin="round"/>
<path id="Vector_2" d="M23.5714 12.3214C23.5714 10.0481 22.6684 7.86797 21.0609 6.26051C19.4535 4.65306 17.2733 3.75 15 3.75C12.7267 3.75 10.5466 4.65306 8.93909 6.26051C7.33164 7.86797 6.42858 10.0481 6.42858 12.3214V19.8214C6.42858 20.6739 6.08992 21.4916 5.48714 22.0944C4.88435 22.6971 4.06677 23.0357 3.21429 23.0357H26.7857C25.9333 23.0357 25.1156 22.6971 24.5128 22.0944C23.91 21.4916 23.5714 20.6739 23.5714 19.8214V12.3214Z" stroke="black" stroke-width="2" stroke-linecap="round" stroke-linejoin="round"/>
<path id="Vector_3" d="M1.07141 12.0429C1.07257 10.0032 1.55898 7.99304 2.4905 6.17847C3.422 4.3639 4.77185 2.797 6.42855 1.60718" stroke="black" stroke-width="2" stroke-linecap="round" stroke-linejoin="round"/>
<path id="Vector_4" d="M28.9286 12.0429C28.9275 10.0032 28.4411 7.99304 27.5096 6.17847C26.5781 4.3639 25.2281 2.797 23.5714 1.60718" stroke="black" stroke-width="2" stroke-linecap="round" stroke-linejoin="round"/>
</g>
</g>
<defs>
<clipPath id="clip0_447_1266">
<rect width="30" height="30" fill="white"/>
</clipPath>
</defs>
</svg>
