<svg width="30" height="30" viewBox="0 0 30 30" fill="none" xmlns="http://www.w3.org/2000/svg">
<g id="user-circle-single--circle-geometric-human-person-single-user" clip-path="url(#clip0_447_1276)">
<g id="user-circle-single--circle-geometric-human-person-single-user_2">
<path id="Vector" d="M15 17.143C17.9586 17.143 20.3571 14.7445 20.3571 11.7859C20.3571 8.82719 17.9586 6.42871 15 6.42871C12.0413 6.42871 9.64282 8.82719 9.64282 11.7859C9.64282 14.7445 12.0413 17.143 15 17.143Z" stroke="black" stroke-width="2" stroke-linecap="round" stroke-linejoin="round"/>
<path id="Vector_2" d="M5.84991 25.5001C6.80614 23.9304 8.15008 22.6332 9.75251 21.7332C11.3549 20.8329 13.162 20.3601 14.9999 20.3601C16.8379 20.3601 18.6449 20.8329 20.2473 21.7332C21.8498 22.6332 23.1936 23.9304 24.15 25.5001" stroke="black" stroke-width="2" stroke-linecap="round" stroke-linejoin="round"/>
<path id="Vector_3" d="M15 28.9287C22.6926 28.9287 28.9286 22.6927 28.9286 15.0001C28.9286 7.30757 22.6926 1.07153 15 1.07153C7.30745 1.07153 1.07141 7.30757 1.07141 15.0001C1.07141 22.6927 7.30745 28.9287 15 28.9287Z" stroke="black" stroke-width="2" stroke-linecap="round" stroke-linejoin="round"/>
</g>
</g>
<defs>
<clipPath id="clip0_447_1276">
<rect width="30" height="30" fill="white"/>
</clipPath>
</defs>
</svg>
