<svg width="30" height="30" viewBox="0 0 30 30" fill="none" xmlns="http://www.w3.org/2000/svg">
<g id="home-3--home-house-roof-shelter" clip-path="url(#clip0_447_1272)">
<g id="home-3--home-house-roof-shelter_2">
<path id="Vector" d="M28.9286 14.8715C28.9307 14.5741 28.8707 14.2795 28.7526 14.0065C28.6346 13.7335 28.461 13.4881 28.2428 13.2858L15 1.07153L1.75717 13.2858C1.53909 13.4881 1.36549 13.7335 1.24743 14.0065C1.12938 14.2795 1.06945 14.5741 1.07146 14.8715V26.7858C1.07146 27.3541 1.29723 27.8992 1.69909 28.301C2.10095 28.7028 2.646 28.9287 3.21431 28.9287H26.7857C27.354 28.9287 27.8991 28.7028 28.3009 28.301C28.7029 27.8992 28.9286 27.3541 28.9286 26.7858V14.8715Z" stroke="black" stroke-width="2" stroke-linecap="round" stroke-linejoin="round"/>
<path id="Vector_2" d="M15 28.9286V20.3572" stroke="black" stroke-width="2" stroke-linecap="round" stroke-linejoin="round"/>
</g>
</g>
<defs>
<clipPath id="clip0_447_1272">
<rect width="30" height="30" fill="white"/>
</clipPath>
</defs>
</svg>
