<svg width="43" height="43" viewBox="0 0 43 43" fill="none" xmlns="http://www.w3.org/2000/svg">
<path id="Vector" d="M21.5 0C9.62555 0 0 9.62555 0 21.5C0 24.2348 0.563287 27.0061 1.54584 29.4958L3.225 32.9208C4.28925 35.1331 3.91516 37.2187 2.48541 39.775C1.69636 41.1897 2.68105 42.8946 4.3 42.9333C6.48655 42.9828 9.98461 42.0841 12.7667 41.0521C15.3317 42.2367 18.6362 43 21.5 43C33.3745 43 43 33.3745 43 21.5C43 9.62555 33.3745 0 21.5 0ZM12.9 19.35C14.0868 19.35 15.05 20.3132 15.05 21.5C15.05 22.6868 14.0868 23.65 12.9 23.65C11.7132 23.65 10.75 22.6868 10.75 21.5C10.75 20.3132 11.7132 19.35 12.9 19.35ZM21.5 19.35C22.6868 19.35 23.65 20.3132 23.65 21.5C23.65 22.6868 22.6868 23.65 21.5 23.65C20.3132 23.65 19.35 22.6868 19.35 21.5C19.35 20.3132 20.3132 19.35 21.5 19.35ZM30.1 19.35C31.2868 19.35 32.25 20.3132 32.25 21.5C32.25 22.6868 31.2868 23.65 30.1 23.65C28.9132 23.65 27.95 22.6868 27.95 21.5C27.95 20.3132 28.9132 19.35 30.1 19.35Z" fill="#D1D1D1"/>
</svg>
